<svg width="76" height="26" viewBox="0 0 76 26" fill="none" xmlns="http://www.w3.org/2000/svg"><path d="M22.385 11.874c-1.633 0-3.236-.616-4.267-1.532l2.076-2.263c.473.516 1.346.988 2.177.988.386 0 .758-.114.758-.472 0-.373-.358-.516-1.79-.988-1.374-.459-2.62-1.189-2.62-2.964 0-2.52 2.262-3.48 4.253-3.48 1.332 0 2.82.544 3.866 1.504l-2.12 2.162c-.457-.573-1.216-.874-1.746-.874-.501 0-.83.13-.83.458 0 .301.3.401 1.002.63 1.46.473 3.422 1.117 3.422 3.208 0 2.449-2.134 3.623-4.181 3.623zm12.675-.287h-3.308V7.635c0-.759-.172-1.088-.615-1.088-.316 0-.688.258-.688 1.045v3.995h-3.308V4.056h3.222v.83h.029a2.707 2.707 0 012.133-1.03c.989 0 1.733.343 2.148 1.087.487-.615 1.189-1.088 2.291-1.088 2.148 0 2.707 1.905 2.707 3.15v4.582h-3.308V7.578c0-.816-.2-1.03-.616-1.03-.386 0-.687.357-.687 1.044v3.995zm9.688-3.121h-.186c-.974 0-1.618.172-1.618.744 0 .416.444.588.759.588.63 0 1.045-.444 1.045-1.074v-.258zm-.215-1.633v-.028c0-.458-.343-.673-.859-.673-.601 0-1.174.3-1.59.644l-1.646-1.632c.902-.874 2.248-1.375 3.58-1.375 2.864 0 3.623 1.733 3.623 3.852v3.966h-2.993v-.601h-.029c-.372.573-1.188.802-1.847.802-1.174 0-2.62-.63-2.62-2.42 0-2.105 2.39-2.535 4.381-2.535zm3.892 4.754V.762h3.38v10.825h-3.38zm4.322 0V.762h3.38v10.825h-3.38zM8.942 21.793c0 1.99-1.189 3.995-3.437 3.995-.93 0-1.862-.387-2.291-.988h-.029v.787H.221V14.762h3.294v3.895h.028c.444-.516 1.246-.802 1.962-.802 2.248 0 3.437 2.005 3.437 3.938zm-3.065 0c0-.659-.444-1.246-1.231-1.246-.773 0-1.289.587-1.289 1.246 0 .701.516 1.274 1.289 1.274.787 0 1.231-.558 1.231-1.274zm11.69-3.738v7.532h-3.222v-.83h-.029c-.372.558-1.189 1.03-2.148 1.03-2.12 0-2.692-1.66-2.692-3.15v-4.582h3.322v3.981c0 .76.244 1.031.716 1.031.43 0 .745-.372.745-1.03v-3.982h3.307zm7.117 5.141c0 2.02-1.933 2.678-3.336 2.678-1.289 0-2.635-.387-3.537-1.074l1.618-1.876c.458.415 1.131.702 1.704.702.23 0 .473-.072.473-.301 0-.244-.315-.358-1.189-.558-.945-.215-2.119-.845-2.119-2.291 0-1.962 1.933-2.707 3.308-2.707 1.16 0 2.362.358 3.279.974l-1.547 1.847c-.472-.3-.988-.487-1.46-.487-.315 0-.559.072-.559.315 0 .186.143.258 1.003.43 1.188.243 2.362.902 2.362 2.348zm.612 2.391v-7.532h3.307v7.532h-3.307zm-.058-9.708c0-.916.788-1.69 1.733-1.69.902 0 1.69.774 1.69 1.69 0 .945-.788 1.675-1.69 1.675-.945 0-1.733-.73-1.733-1.675zm4.323 9.708v-7.532h3.222v.831h.028c.373-.558 1.189-1.03 2.148-1.03 2.12 0 2.692 1.66 2.692 3.15v4.581H34.33v-4.009c0-.759-.243-1.03-.716-1.03-.43 0-.744.371-.744 1.03v4.01H29.56zM41.26 20.82h2.277c0-.53-.43-.916-1.089-.916-.73 0-1.13.5-1.188.916zm5.126 1.074c0 .244-.014.53-.029.702h-5.069c.058.53.688.859 1.29.859.6 0 1.03-.272 1.23-.53l2.349 1.189c-.659 1.073-1.99 1.76-3.666 1.76-2.19 0-4.267-1.388-4.267-4.052 0-2.491 1.876-4.052 4.196-4.052 2.362 0 3.966 1.747 3.966 4.124zm6.757 1.303c0 2.02-1.933 2.678-3.336 2.678-1.289 0-2.635-.387-3.537-1.074l1.618-1.876c.458.415 1.131.702 1.704.702.229 0 .472-.072.472-.301 0-.244-.315-.358-1.188-.558-.945-.215-2.12-.845-2.12-2.291 0-1.962 1.934-2.707 3.308-2.707 1.16 0 2.363.358 3.28.974l-1.547 1.847c-.472-.3-.988-.487-1.46-.487-.316 0-.559.072-.559.315 0 .186.143.258 1.002.43 1.189.243 2.363.902 2.363 2.348zm6.769 0c0 2.02-1.933 2.678-3.337 2.678-1.288 0-2.634-.387-3.537-1.074l1.619-1.876c.458.415 1.13.702 1.704.702.229 0 .472-.072.472-.301 0-.244-.315-.358-1.188-.558-.946-.215-2.12-.845-2.12-2.291 0-1.962 1.933-2.707 3.308-2.707 1.16 0 2.363.358 3.28.974l-1.547 1.847c-.473-.3-.988-.487-1.46-.487-.316 0-.56.072-.56.315 0 .186.144.258 1.003.43 1.188.243 2.363.902 2.363 2.348zm3.332-2.377h2.276c0-.53-.43-.916-1.088-.916-.73 0-1.131.5-1.188.916zm5.126 1.074c0 .244-.014.53-.029.702h-5.069c.058.53.688.859 1.289.859s1.031-.272 1.231-.53l2.349 1.189c-.659 1.073-1.99 1.76-3.666 1.76-2.19 0-4.267-1.388-4.267-4.052 0-2.491 1.876-4.052 4.195-4.052 2.363 0 3.967 1.747 3.967 4.124zm6.757 1.303c0 2.02-1.933 2.678-3.337 2.678-1.288 0-2.634-.387-3.536-1.074l1.618-1.876c.458.415 1.131.702 1.704.702.229 0 .472-.072.472-.301 0-.244-.315-.358-1.188-.558-.945-.215-2.12-.845-2.12-2.291 0-1.962 1.934-2.707 3.308-2.707 1.16 0 2.363.358 3.28.974L73.78 20.59c-.473-.3-.988-.487-1.46-.487-.316 0-.56.072-.56.315 0 .186.144.258 1.003.43 1.189.243 2.363.902 2.363 2.348z" fill="#2CA01C"/></svg>