<svg width="528" height="522" viewBox="0 0 528 522" fill="none" xmlns="http://www.w3.org/2000/svg"><g opacity=".6"><path d="M28.37 249.471c0 36.872 8.174 73.288 24.064 106.579 15.883 33.277 39.068 62.575 67.918 85.581 28.843 22.999 62.581 39.105 98.661 46.926 36.132 7.836 73.619 7.132 109.417-2.203 35.681-9.307 68.672-26.928 96.137-51.551 27.457-24.608 48.584-55.493 61.406-90.082 12.836-34.611 16.956-71.867 11.807-108.442-5.164-36.67-19.488-71.469-41.803-101.064-22.185-29.407-51.543-52.688-85.36-67.402-33.825-14.722-70.957-20.368-107.64-16.128-36.798 4.255-71.82 18.302-101.228 40.88-29.387 22.558-52.036 52.783-65.199 87.445a195.919 195.919 0 00-12.104 53.26 193.598 193.598 0 003.198 54.733c7.376 36.22 25.057 69.606 51.144 95.888a186.08 186.08 0 0044.007 32.857 183.293 183.293 0 0051.717 18.469c18.116 3.529 36.66 4.291 55.001 2.203a178.052 178.052 0 0053.276-14.656c33.601-15.193 61.66-40.555 79.842-72.708a169.654 169.654 0 0018.899-51.275c3.489-18.063 3.989-36.568 1.422-54.79-2.575-18.295-8.203-36.032-16.695-52.442-8.493-16.403-19.734-31.255-33.267-43.845-27.247-25.34-62.602-40.402-99.894-41.932-36.885-1.515-73.198 10.373-101.736 33.959-28.487 23.542-47.104 57.08-51.325 93.916-4.25 37.083 6.563 74.521 30.692 103.224 11.937 14.2 26.725 25.746 43.464 33.785 16.702 8.023 35.014 12.38 53.565 12.59 36.697.413 71.966-15.33 95.383-43.889 11.517-14.047 19.625-30.602 23.513-48.368 3.916-17.918 3.408-36.575-1.654-54.225-5.098-17.78-14.671-34.002-27.943-46.933-13.258-12.916-29.749-22.093-47.815-26.319-18.276-4.276-37.473-3.298-55.162 3.117-17.826 6.466-33.36 18.194-44.188 33.828-9.464 13.663-14.955 29.791-15.462 46.455-.53 17.164 4.228 34.147 13.975 48.375 9.726 14.2 23.926 24.869 40.512 29.813 16.978 5.066 35.391 3.74 51.281-4.393 16.086-8.234 28.255-22.897 32.433-40.685 4.366-18.584-.747-38.684-15.114-51.876-7.107-6.524-16.035-10.844-25.674-12.011-10.392-1.261-21.097 1.283-29.495 7.756-8.442 6.502-13.939 16.7-13.286 27.638.341 5.683 2.371 11.235 6.164 15.584 3.706 4.255 9.066 7.205 14.882 7.205 4.344 0 8.993-1.79 11.452-5.683 1.175-1.855 1.769-4.168 1.189-6.371-.573-2.175-2.335-3.994-4.729-3.994-2.393 0-4.155-1.819-4.728-3.994-.58-2.203.014-4.516 1.189-6.371 2.459-3.892 7.108-5.683 11.452-5.683 5.816 0 11.183 2.958 14.882 7.205 3.793 4.349 5.823 9.901 6.164 15.584.653 10.938-4.844 21.136-13.286 27.638-8.398 6.473-19.103 9.017-29.495 7.756-9.646-1.167-18.567-5.487-25.674-12.011-14.367-13.192-19.48-33.292-15.114-51.876 4.178-17.788 16.347-32.451 32.433-40.685 15.89-8.14 34.296-9.459 51.281-4.393 16.579 4.951 30.779 15.621 40.512 29.813 9.747 14.228 14.505 31.211 13.975 48.375-.507 16.657-5.997 32.792-15.462 46.455-10.828 15.634-26.362 27.362-44.188 33.828-17.689 6.415-36.886 7.4-55.162 3.117-18.066-4.233-34.55-13.403-47.815-26.319-13.272-12.931-22.845-29.153-27.943-46.933-5.062-17.657-5.57-36.307-1.654-54.225 3.888-17.766 11.989-34.321 23.513-48.368 23.417-28.559 58.686-44.302 95.383-43.889 18.551.21 36.863 4.559 53.566 12.591 16.731 8.038 31.526 19.585 43.463 33.784 24.129 28.703 34.942 66.141 30.692 103.224-4.221 36.836-22.838 70.381-51.325 93.916-28.538 23.587-64.851 35.467-101.736 33.959-37.292-1.53-72.647-16.592-99.894-41.932-13.533-12.583-24.774-27.435-33.267-43.845-8.492-16.41-14.12-34.154-16.695-52.442a166.613 166.613 0 011.422-54.79c3.474-18.005 9.878-35.314 18.899-51.275 18.175-32.153 46.234-57.515 79.842-72.708a178.056 178.056 0 0153.276-14.656 180.939 180.939 0 0155.001 2.203 183.556 183.556 0 0151.717 18.47 186.24 186.24 0 0144.007 32.856c26.08 26.283 43.768 59.661 51.144 95.888a193.59 193.59 0 013.198 54.733 196.118 196.118 0 01-12.104 53.26c-13.163 34.662-35.819 64.888-65.199 87.444-29.408 22.579-64.43 36.633-101.228 40.881-36.683 4.24-73.815-1.399-107.64-16.128-33.817-14.721-63.175-37.995-85.36-67.402-22.323-29.588-36.646-64.394-41.803-101.063-5.149-36.576-1.03-73.832 11.807-108.443 12.823-34.582 33.956-65.474 61.406-90.082 27.465-24.623 60.456-42.25 96.137-51.55 35.798-9.336 73.285-10.032 109.417-2.204 36.08 7.821 69.818 23.927 98.661 46.926 28.85 23.006 52.036 52.304 67.918 85.581 15.89 33.292 24.064 69.714 24.064 106.58 0 34.596-7.202 68.815-21.04 100.512-13.844 31.704-34.042 60.234-59.273 83.9-25.238 23.673-54.995 41.997-87.456 53.964-32.469 11.974-66.99 17.36-101.555 15.932-34.579-1.428-68.52-9.633-99.959-24.079-31.439-14.446-59.767-34.85-83.475-60.017-23.715-25.18-42.376-54.659-55.06-86.82C7.136 318.308.667 284.031.667 249.471H28.37z" fill="#fff"/><g opacity=".5" filter="url(#filter0_dif_94_45429)"><path transform="rotate(-25.996 494.935 -565.607) skewX(-.008)" fill="#fff" stroke="#000" stroke-width=".69" d="M.461.159h112.075v22.279H.461z"/><path d="M321.326 160.153l-5.826 2.841-.493-1.011 5.826-2.841.493 1.011zm1.306 2.679l-5.826 2.841-.493-1.012 5.826-2.841.493 1.012zm1.081-.93l1.054-.633c.268.415.565.72.893.913.329.187.737.271 1.225.252a3.784 3.784 0 001.48-.402 3.615 3.615 0 001.083-.774c.276-.299.441-.602.494-.911a1.41 1.41 0 00-.117-.882 1.263 1.263 0 00-.593-.605c-.262-.13-.612-.176-1.049-.136-.282.023-.875.136-1.779.339-.907.198-1.565.291-1.974.276-.529-.015-.977-.134-1.344-.357a2.283 2.283 0 01-.844-.952 2.48 2.48 0 01-.228-1.431c.063-.512.289-.987.676-1.425a4.675 4.675 0 011.473-1.09c.654-.319 1.281-.494 1.882-.524.604-.035 1.14.086 1.608.364.468.278.839.671 1.111 1.179l-1.078.63c-.332-.528-.742-.85-1.23-.965-.484-.116-1.065-.009-1.743.322-.707.344-1.159.726-1.357 1.145-.195.413-.204.803-.026 1.168.154.317.396.522.724.615.325.095 1.013.02 2.066-.225 1.054-.251 1.797-.382 2.229-.394.629-.014 1.155.102 1.577.348.421.242.747.599.978 1.073.229.469.31.978.245 1.527-.067.544-.297 1.056-.689 1.535-.39.473-.9.864-1.53 1.171-.799.389-1.525.6-2.181.631a3.15 3.15 0 01-1.78-.428 3.342 3.342 0 01-1.256-1.354zm11.489-13.015l1.167-.57 2.486 5.098c.432.887.675 1.64.729 2.26.053.619-.103 1.222-.468 1.807-.363.579-.97 1.076-1.82 1.491-.827.403-1.572.591-2.237.562a2.72 2.72 0 01-1.727-.685c-.489-.432-.961-1.116-1.417-2.051l-2.485-5.098 1.168-.569 2.482 5.092c.374.766.72 1.298 1.038 1.595.32.29.701.45 1.142.478.445.027.918-.083 1.42-.327.858-.419 1.375-.912 1.551-1.479.175-.567-.007-1.405-.547-2.512l-2.482-5.092zm7.383 7.321l-4.302-8.824 1.758-.857 5.134 5.229c.476.488.829.855 1.058 1.101-.056-.37-.13-.918-.22-1.644l-.881-7.169 1.571-.766 4.302 8.824-1.126.549-3.6-7.386 1.036 8.636-1.053.513-6.214-6.267 3.662 7.512-1.125.549zm13.5-3.373c-.965-.463-1.901-1.099-2.808-1.909a9.148 9.148 0 01-2.151-2.839 9.101 9.101 0 01-.875-2.971c-.134-1.191-.069-2.474.195-3.849l.776-.379c-.079 1.071-.109 1.824-.092 2.257.026.673.115 1.345.268 2.016.193.834.474 1.63.844 2.389.941 1.93 2.481 3.565 4.619 4.906l-.776.379zm36.34-17.721l-.776.378c.26-2.511-.08-4.731-1.021-6.661a10.908 10.908 0 00-1.353-2.119 10.436 10.436 0 00-1.417-1.455c-.332-.285-.949-.729-1.849-1.333l.777-.379c1.245.64 2.295 1.379 3.151 2.218a9.099 9.099 0 011.802 2.519 9.084 9.084 0 01.906 3.447c.079 1.212.006 2.341-.22 3.385z" fill="#000"/><path d="M356.024 149.654l-.913-10.476 1.258-.614 7.913 7.063-1.33.649-2.332-2.171-3.69 1.799.334 3.145-1.24.605zm.78-4.865l2.991-1.459-2.112-1.994a26.902 26.902 0 01-1.518-1.525c.163.621.279 1.26.346 1.917l.293 3.061zm10.344-8.807l-1.036.61c-.304-.379-.591-.621-.861-.727a1.592 1.592 0 00-1.309.064 1.664 1.664 0 00-.768.732c-.22.416-.312.91-.276 1.483.036.574.266 1.304.688 2.19.067-.524.242-.975.526-1.351a2.85 2.85 0 011.044-.867c.723-.352 1.467-.385 2.232-.098.768.281 1.357.843 1.768 1.686.27.554.401 1.128.393 1.723a2.89 2.89 0 01-.45 1.568 3 3 0 01-1.235 1.072c-.903.44-1.801.468-2.693.084-.895-.389-1.714-1.345-2.457-2.87-.831-1.705-1.121-3.099-.868-4.181.221-.942.797-1.64 1.728-2.094.694-.338 1.356-.42 1.987-.246.636.172 1.165.579 1.587 1.222zm-2.569 5.961c.182.374.434.693.757.957.327.263.677.415 1.05.457.371.038.712-.02 1.025-.172.458-.224.761-.6.91-1.129.149-.53.069-1.112-.24-1.746-.297-.61-.693-1.01-1.189-1.201a1.782 1.782 0 00-1.486.069 1.856 1.856 0 00-.987 1.138c-.171.515-.118 1.058.16 1.627zm5.145-5.354l-.602-1.234 1.234-.602.601 1.234-1.233.602zm2.514 5.158l-.601-1.234 1.233-.601.602 1.233-1.234.602zm3.22-1.57l-4.302-8.824 3.311-1.614c.674-.329 1.257-.502 1.751-.519a2.28 2.28 0 011.359.358c.412.256.717.586.915.992.184.377.255.782.212 1.215-.042.432-.22.852-.533 1.258.61-.104 1.149-.036 1.618.202.473.236.834.611 1.085 1.125.201.413.301.841.298 1.285 0 .437-.082.814-.245 1.132-.163.318-.414.622-.755.912-.338.284-.788.563-1.35.837l-3.364 1.641zm-1.326-5.686l1.907-.93c.518-.252.873-.468 1.064-.645.254-.233.405-.488.454-.765.053-.279.004-.573-.147-.882a1.562 1.562 0 00-.586-.668 1.168 1.168 0 00-.825-.164c-.302.043-.77.219-1.404.528l-1.763.86 1.3 2.666zm1.986 4.075l2.197-1.071c.377-.184.635-.327.774-.43a2.11 2.11 0 00.556-.569c.126-.2.195-.435.208-.705a1.723 1.723 0 00-.189-.831 1.623 1.623 0 00-.67-.732 1.464 1.464 0 00-.953-.168c-.346.045-.8.204-1.362.478l-2.04.995 1.479 3.033zm9.543-11.612l-1.036.61c-.304-.379-.591-.621-.861-.727a1.592 1.592 0 00-1.309.064 1.664 1.664 0 00-.768.732c-.22.416-.312.91-.276 1.483.036.574.266 1.304.688 2.19.067-.524.242-.975.526-1.351a2.85 2.85 0 011.044-.867c.723-.352 1.467-.385 2.232-.098.768.281 1.357.843 1.768 1.686.27.554.401 1.128.393 1.723a2.89 2.89 0 01-.45 1.568 2.99 2.99 0 01-1.235 1.071c-.903.441-1.801.469-2.693.085-.895-.389-1.714-1.345-2.457-2.87-.831-1.705-1.121-3.099-.868-4.181.221-.942.797-1.64 1.728-2.094.694-.338 1.356-.42 1.987-.246.636.172 1.165.579 1.587 1.222zm-2.569 5.961c.182.374.434.693.757.957.327.263.677.415 1.05.457.371.038.713-.02 1.025-.173.458-.223.761-.599.91-1.128.149-.53.069-1.112-.24-1.746-.297-.61-.693-1.01-1.189-1.201a1.782 1.782 0 00-1.486.069 1.856 1.856 0 00-.987 1.138c-.171.515-.118 1.058.16 1.627z" fill="#F9C741"/><path d="M305.652 156.498l-3.456 10.033-3.287-6.744 6.743-3.289z" fill="#2CA01C"/></g><g opacity=".2" filter="url(#filter1_dif_94_45429)"><path transform="matrix(.6238 .78164 -.78148 .62387 191.265 70.258)" fill="#fff" stroke="#000" stroke-width=".473" d="M-.037.332h57.631V15.59H-.037z"/><path d="M188.516 85.03l1.776-.907-.484-.606.534-.426.569.713 1.513-.773-.781-.979.534-.426.867 1.086 1.786-.916.429.538-1.786.916.901 1.129 1.786-.916.432.542-1.786.915.495.62-.534.426-.581-.727-1.515.77.795.996-.534.426-.881-1.104-1.776.907-.429-.537 1.773-.911-.898-1.126-1.776.907-.429-.537zm2.825-.688l.898 1.125 1.515-.77-.901-1.129-1.512.774zm1.882 6.401l3.629-6.23.6.753-2.726 4.413c-.219.354-.432.675-.64.962a13.85 13.85 0 011.086-.403l4.949-1.627.567.71-6.896 2.136-.569-.713zm1.813 2.273l6.865-2.176.597.75-3.537 6.344-.632-.792 1.102-1.883-1.754-2.198-2.051.693-.59-.738zm3.368-.206l1.421 1.781 1.018-1.71c.308-.52.572-.934.792-1.242-.391.202-.8.375-1.23.518l-2.001.653zm.978 5.65l5.253-4.193.555.695-4.634 3.7 2.066 2.587-.62.495-2.62-3.283zm11.289 3.37l.555.695-3.035 2.424c-.528.421-.995.696-1.401.825-.406.128-.832.114-1.278-.043-.441-.156-.864-.487-1.268-.994-.393-.492-.63-.963-.71-1.411a1.86 1.86 0 01.2-1.257c.216-.391.602-.809 1.158-1.253l3.036-2.424.555.696-3.032 2.42c-.456.364-.76.675-.911.932a1.253 1.253 0 00-.149.835c.049.302.193.602.431.9.408.512.815.784 1.22.816.406.033.938-.214 1.597-.741l3.032-2.42zm-3.76 6.065l5.253-4.194 3.033 3.8-.62.495-2.478-3.105-1.609 1.285 2.32 2.907-.616.492-2.32-2.907-1.788 1.428 2.574 3.226-.62.495-3.129-3.922zm5.409 4.103l2.627-2.421 1.165-.929.638.799-1.165.93-2.933 2.036-.332-.415zm-1.439.872l.735-.586.592.742-.735.586-.592-.742z" fill="#000"/><path d="M194.234 74.87l-7.233-.689 3.961-3.272 3.272 3.961z" fill="#2CA01C"/></g><g opacity=".8" filter="url(#filter2_dif_94_45429)"><path transform="matrix(.84443 -.53559 .5355 .84458 201.815 346.578)" fill="#fff" stroke="#F9C741" stroke-width=".29" stroke-dasharray="1.33 1.33" d="M.2.045h28.948v9.362H.2z"/><path d="M210.455 349.498l-.364-.959-.337.214-.188-.297.396-.251-.311-.817-.543.345-.189-.297.604-.382-.369-.964.299-.19.368.964.628-.397-.369-.965.301-.19.368.964.345-.219.188.297-.404.256.309.818.553-.351.188.297-.613.389.365.958-.299.189-.367-.957-.625.397.365.958-.299.19zm-.194-1.483l.625-.396-.309-.818-.627.398.311.816zm2.538-.074l-1.851-2.919.396-.252 2.987 1.32-1.454-2.292.371-.235 1.851 2.92-.397.251-2.987-1.322 1.454 2.294-.37.235zm2.63-1.668l-.73-3.63.416-.264 3.046 2.161-.44.279-.901-.668-1.221.774.24 1.088-.41.26zm.082-1.733l.99-.628-.817-.615a9.525 9.525 0 01-.591-.474c.081.211.147.43.196.657l.222 1.06zm2.947-.188l-1.851-2.919.581-.369 2.001 1.629c.186.152.324.267.414.344a23.803 23.803 0 01-.142-.567l-.589-2.474.52-.33 1.851 2.919-.372.237-1.55-2.444.702 2.982-.349.221-2.42-1.95 1.576 2.485-.372.236zm3.416-2.167l-1.851-2.919 2.111-1.339.218.345-1.724 1.093.567.894 1.615-1.024.217.343-1.615 1.024.63.994 1.792-1.137.218.345-2.178 1.381zm2.881-2.835l-.07-.107a1.18 1.18 0 01-.171-.402.983.983 0 01-.007-.323c.012-.087.045-.224.1-.411.054-.19.08-.329.076-.417a.499.499 0 00-.08-.249.585.585 0 00-.395-.263.654.654 0 00-.501.095.638.638 0 00-.292.386c-.041.16-.014.352.083.575l-.396.19c-.139-.293-.173-.564-.102-.812.073-.249.244-.459.514-.63.285-.181.562-.248.83-.2a.869.869 0 01.613.402c.08.127.125.264.133.409.009.145-.025.35-.101.615a2.135 2.135 0 00-.084.374.603.603 0 00.028.22 1.7 1.7 0 00.167.329l-.345.219zm.434.733l-.259-.409.409-.259.258.409-.408.259z" fill="#F9C741"/></g><g opacity=".3" filter="url(#filter3_dif_94_45429)"><path transform="matrix(-.77612 -.63059 -.63046 .77622 320.196 340.324)" fill="#fff" stroke="#A7A7A7" stroke-width=".391" d="M-.275.028h7.639v7.36H-.275z"/><path d="M312.322 341.013l4.159-1.709-.848 4.399-3.311-2.69z" fill="#FBDB8F" stroke="#D88D3D" stroke-width=".21"/><path d="M315.853 340.221l-.852 1.048-.207-.168.852-1.049.207.169zm-1.064 1.387a.182.182 0 01-.253.024.18.18 0 01-.029-.25.177.177 0 01.252-.024c.08.064.091.174.03.25z" fill="#000"/><path transform="rotate(39.093 -319.04 621.8) skewX(.009)" fill="#fff" stroke="#000" stroke-width=".391" d="M.028.275h47.693v12.626H.028z"/><path d="M319.86 352.338l1.275-1.046-.498-.405.357-.439.586.477 1.086-.893-.804-.653.357-.439.892.725 1.283-1.055.442.359-1.283 1.055.928.754 1.282-1.055.445.361-1.282 1.055.509.414-.356.439-.598-.485-1.09.889.819.666-.356.439-.908-.737-1.275 1.046-.442-.359 1.273-1.049-.925-.751-1.276 1.046-.441-.359zm2.162-1.054l.925.751 1.089-.89-.928-.754-1.086.893zm1.195 3.783l1.276-1.047-.498-.405.356-.438.587.476 1.086-.892-.804-.654.356-.439.893.725 1.283-1.055.441.359-1.282 1.055.928.754 1.282-1.055.445.361-1.283 1.056.51.414-.357.438-.598-.485-1.089.889.819.666-.357.439-.907-.737-1.275 1.046-.442-.359 1.272-1.049-.924-.751-1.276 1.047-.442-.359zm2.162-1.055l.925.751 1.09-.89-.928-.754-1.087.893zm1.196 3.783l1.275-1.047-.497-.404.356-.439.586.476 1.087-.892-.804-.654.356-.439.893.726 1.282-1.056.442.359-1.283 1.055.928.754 1.283-1.055.445.361-1.283 1.056.51.414-.357.439-.598-.486-1.089.89.819.665-.357.439-.907-.737-1.276 1.046-.441-.359 1.272-1.049-.925-.751-1.275 1.047-.442-.359zm2.162-1.055l.925.751 1.089-.89-.927-.753-1.087.892zm1.196 3.783l1.275-1.047-.498-.404.357-.439.586.476 1.086-.892-.804-.654.357-.438.892.725 1.283-1.056.442.359-1.283 1.056.928.753 1.283-1.055.444.361-1.282 1.056.509.414-.356.439-.598-.486-1.09.89.819.665-.356.439-.907-.737-1.276 1.046-.442-.358 1.273-1.05-.925-.751-1.276 1.047-.441-.359zm2.162-1.055l.925.751 1.089-.889-.928-.754-1.086.892zm1.195 3.783l1.276-1.047-.498-.404.357-.439.586.476 1.086-.892-.804-.653.357-.439.892.725 1.283-1.056.441.359-1.282 1.056.928.753 1.282-1.055.445.361-1.283 1.056.51.414-.357.439-.597-.486-1.09.89.819.665-.357.439-.907-.737-1.275 1.047-.442-.359 1.272-1.049-.924-.752-1.276 1.047-.442-.359zm2.163-1.055l.924.751 1.09-.889-.928-.754-1.086.892zm1.195 3.783l1.276-1.047-.498-.404.356-.439.586.476 1.087-.892-.804-.653.356-.439.893.725 1.282-1.056.442.359-1.282 1.056.927.754 1.283-1.056.445.361-1.283 1.056.51.414-.357.439-.598-.486-1.089.89.819.665-.357.439-.907-.737-1.276 1.047-.441-.359 1.272-1.049-.925-.752-1.275 1.047-.442-.359zm2.162-1.055l.925.752 1.089-.89-.927-.754-1.087.892zm1.196 3.783l1.275-1.047-.498-.404.357-.439.586.476 1.087-.892-.805-.653.357-.439.892.725 1.283-1.056.442.359-1.283 1.056.928.754 1.283-1.056.444.361-1.282 1.056.509.414-.356.439-.598-.486-1.09.89.819.665-.356.439-.907-.737-1.276 1.047-.442-.359 1.273-1.049-.925-.752-1.275 1.047-.442-.359zm2.162-1.055l.925.752 1.089-.89-.928-.754-1.086.892zm1.195 3.783l1.276-1.047-.498-.404.357-.439.586.476 1.086-.892-.804-.653.357-.439.892.725 1.283-1.056.442.359-1.283 1.056.928.754 1.282-1.056.445.362-1.283 1.055.51.414-.356.439-.598-.486-1.09.89.819.665-.356.439-.908-.737-1.275 1.047-.442-.359 1.273-1.049-.925-.752-1.276 1.047-.442-.359zm2.163-1.055l.924.752 1.09-.89-.928-.754-1.086.892z" fill="#000"/><path d="M323.817 343.356l-5.981.62 2.681-3.301 3.3 2.681z" fill="#2CA01C"/></g><g opacity=".4" filter="url(#filter4_dif_94_45429)"><path transform="rotate(-77.722 420.623 112.091) skewX(-.004)" fill="#fff" stroke="red" stroke-width=".736" d="M.438-.281h89.67v23.735H.438z"/><path d="M238.58 473.698l-1.469 6.748-1.171-.255 1.469-6.748 1.171.255zm3.102.675l-1.468 6.749-1.172-.255 1.469-6.749 1.171.255zm3.308-1.207l-10.22-2.225.834-3.834c.17-.781.411-1.383.722-1.807.308-.43.707-.73 1.196-.901a2.542 2.542 0 011.434-.111c.437.095.822.303 1.156.624.335.321.568.746.701 1.277.316-.579.728-.986 1.237-1.221.509-.239 1.062-.294 1.656-.165.479.105.903.304 1.272.599.366.288.628.606.786.952.158.346.246.757.265 1.233.014.471-.05 1.031-.191 1.682l-.848 3.897zm-5.632-2.643l.481-2.21c.131-.599.185-1.038.163-1.315-.028-.366-.141-.661-.341-.885-.198-.228-.477-.381-.835-.459a1.662 1.662 0 00-.945.05c-.296.106-.523.3-.682.582-.163.28-.324.788-.484 1.522l-.445 2.043 3.088.672zm4.72 1.028l.554-2.545c.095-.437.145-.747.151-.931a2.246 2.246 0 00-.109-.841 1.51 1.51 0 00-.452-.639 1.847 1.847 0 00-.821-.39 1.723 1.723 0 00-1.053.077 1.55 1.55 0 00-.77.687c-.191.318-.358.803-.499 1.454l-.514 2.363 3.513.765zm3.761-11.477l-2.447-.533-.965 4.434-1.15-.251-5.608-6.105.223-1.025 6.623 1.442.3-1.381 1.15.251-.3 1.38 2.447.533-.273 1.255zm-3.597-.784l-4.608-1.003 3.911 4.203.697-3.2zm4.496-2.511l-9.923-5.263.218-1.004 9.925 5.256-.22 1.011z" fill="#000"/><path d="M249.424 452.789l-9.365-6.15.317-1.457 11.13-1.958-.335 1.541-3.355.518-.93 4.273 2.851 1.796-.313 1.437zm-3.555-3.863l.754-3.465-3.062.451c-.931.138-1.69.226-2.277.263.627.273 1.238.598 1.832.976l2.753 1.775zm6.637-10.296l-2.447-.533-.965 4.434-1.15-.251-5.608-6.105.223-1.025 6.623 1.442.3-1.381 1.15.251-.3 1.38 2.447.533-.273 1.255zm-3.597-.783l-4.608-1.004 3.911 4.203.697-3.199z" fill="red"/></g></g><defs><filter id="filter0_dif_94_45429" x="286.741" y="102.207" width="133.97" height="92.623" filterUnits="userSpaceOnUse" color-interpolation-filters="sRGB"><feFlood flood-opacity="0" result="BackgroundImageFix"/><feColorMatrix in="SourceAlpha" values="0 0 0 0 0 0 0 0 0 0 0 0 0 0 0 0 0 0 127 0" result="hardAlpha"/><feOffset dy="3.417"/><feGaussianBlur stdDeviation="5.637"/><feComposite in2="hardAlpha" operator="out"/><feColorMatrix values="0 0 0 0 0 0 0 0 0 0 0 0 0 0 0 0 0 0 0.15 0"/><feBlend in2="BackgroundImageFix" result="effect1_dropShadow_94_45429"/><feBlend in="SourceGraphic" in2="effect1_dropShadow_94_45429" result="shape"/><feColorMatrix in="SourceAlpha" values="0 0 0 0 0 0 0 0 0 0 0 0 0 0 0 0 0 0 127 0" result="hardAlpha"/><feOffset dy="6.833"/><feGaussianBlur stdDeviation="3.417"/><feComposite in2="hardAlpha" operator="arithmetic" k2="-1" k3="1"/><feColorMatrix values="0 0 0 0 0 0 0 0 0 0 0 0 0 0 0 0 0 0 0.07 0"/><feBlend in2="shape" result="effect2_innerShadow_94_45429"/><feGaussianBlur stdDeviation="1.398" result="effect3_foregroundBlur_94_45429"/></filter><filter id="filter1_dif_94_45429" x="173.764" y="66.645" width="58.462" height="65.154" filterUnits="userSpaceOnUse" color-interpolation-filters="sRGB"><feFlood flood-opacity="0" result="BackgroundImageFix"/><feColorMatrix in="SourceAlpha" values="0 0 0 0 0 0 0 0 0 0 0 0 0 0 0 0 0 0 127 0" result="hardAlpha"/><feOffset dy="1.504"/><feGaussianBlur stdDeviation="2.481"/><feComposite in2="hardAlpha" operator="out"/><feColorMatrix values="0 0 0 0 0 0 0 0 0 0 0 0 0 0 0 0 0 0 0.15 0"/><feBlend in2="BackgroundImageFix" result="effect1_dropShadow_94_45429"/><feBlend in="SourceGraphic" in2="effect1_dropShadow_94_45429" result="shape"/><feColorMatrix in="SourceAlpha" values="0 0 0 0 0 0 0 0 0 0 0 0 0 0 0 0 0 0 127 0" result="hardAlpha"/><feOffset dy="3.007"/><feGaussianBlur stdDeviation="1.504"/><feComposite in2="hardAlpha" operator="arithmetic" k2="-1" k3="1"/><feColorMatrix values="0 0 0 0 0 0 0 0 0 0 0 0 0 0 0 0 0 0 0.07 0"/><feBlend in2="shape" result="effect2_innerShadow_94_45429"/><feGaussianBlur stdDeviation=".301" result="effect3_foregroundBlur_94_45429"/></filter><filter id="filter2_dif_94_45429" x="198.763" y="328.682" width="35.948" height="29.901" filterUnits="userSpaceOnUse" color-interpolation-filters="sRGB"><feFlood flood-opacity="0" result="BackgroundImageFix"/><feColorMatrix in="SourceAlpha" values="0 0 0 0 0 0 0 0 0 0 0 0 0 0 0 0 0 0 127 0" result="hardAlpha"/><feOffset dy=".923"/><feGaussianBlur stdDeviation="1.522"/><feComposite in2="hardAlpha" operator="out"/><feColorMatrix values="0 0 0 0 0 0 0 0 0 0 0 0 0 0 0 0 0 0 0.15 0"/><feBlend in2="BackgroundImageFix" result="effect1_dropShadow_94_45429"/><feBlend in="SourceGraphic" in2="effect1_dropShadow_94_45429" result="shape"/><feColorMatrix in="SourceAlpha" values="0 0 0 0 0 0 0 0 0 0 0 0 0 0 0 0 0 0 127 0" result="hardAlpha"/><feOffset dy="1.845"/><feGaussianBlur stdDeviation=".923"/><feComposite in2="hardAlpha" operator="arithmetic" k2="-1" k3="1"/><feColorMatrix values="0 0 0 0 0 0 0 0 0 0 0 0 0 0 0 0 0 0 0.07 0"/><feBlend in2="shape" result="effect2_innerShadow_94_45429"/><feGaussianBlur stdDeviation=".188" result="effect3_foregroundBlur_94_45429"/></filter><filter id="filter3_dif_94_45429" x="306.32" y="333.177" width="54.719" height="51.803" filterUnits="userSpaceOnUse" color-interpolation-filters="sRGB"><feFlood flood-opacity="0" result="BackgroundImageFix"/><feColorMatrix in="SourceAlpha" values="0 0 0 0 0 0 0 0 0 0 0 0 0 0 0 0 0 0 127 0" result="hardAlpha"/><feOffset dy=".978"/><feGaussianBlur stdDeviation="1.614"/><feComposite in2="hardAlpha" operator="out"/><feColorMatrix values="0 0 0 0 0 0 0 0 0 0 0 0 0 0 0 0 0 0 0.15 0"/><feBlend in2="BackgroundImageFix" result="effect1_dropShadow_94_45429"/><feBlend in="SourceGraphic" in2="effect1_dropShadow_94_45429" result="shape"/><feColorMatrix in="SourceAlpha" values="0 0 0 0 0 0 0 0 0 0 0 0 0 0 0 0 0 0 127 0" result="hardAlpha"/><feOffset dy="1.956"/><feGaussianBlur stdDeviation=".978"/><feComposite in2="hardAlpha" operator="arithmetic" k2="-1" k3="1"/><feColorMatrix values="0 0 0 0 0 0 0 0 0 0 0 0 0 0 0 0 0 0 0.07 0"/><feBlend in2="shape" result="effect2_innerShadow_94_45429"/><feGaussianBlur stdDeviation=".196" result="effect3_foregroundBlur_94_45429"/></filter><filter id="filter4_dif_94_45429" x="211.136" y="403.817" width="62.926" height="113.334" filterUnits="userSpaceOnUse" color-interpolation-filters="sRGB"><feFlood flood-opacity="0" result="BackgroundImageFix"/><feColorMatrix in="SourceAlpha" values="0 0 0 0 0 0 0 0 0 0 0 0 0 0 0 0 0 0 127 0" result="hardAlpha"/><feOffset dy="2.999"/><feGaussianBlur stdDeviation="4.948"/><feComposite in2="hardAlpha" operator="out"/><feColorMatrix values="0 0 0 0 0 0 0 0 0 0 0 0 0 0 0 0 0 0 0.15 0"/><feBlend in2="BackgroundImageFix" result="effect1_dropShadow_94_45429"/><feBlend in="SourceGraphic" in2="effect1_dropShadow_94_45429" result="shape"/><feColorMatrix in="SourceAlpha" values="0 0 0 0 0 0 0 0 0 0 0 0 0 0 0 0 0 0 127 0" result="hardAlpha"/><feOffset dy="5.997"/><feGaussianBlur stdDeviation="2.999"/><feComposite in2="hardAlpha" operator="arithmetic" k2="-1" k3="1"/><feColorMatrix values="0 0 0 0 0 0 0 0 0 0 0 0 0 0 0 0 0 0 0.07 0"/><feBlend in2="shape" result="effect2_innerShadow_94_45429"/><feGaussianBlur stdDeviation="1.071" result="effect3_foregroundBlur_94_45429"/></filter></defs></svg>