<svg width="106" height="28" viewBox="0 0 106 28" fill="none" xmlns="http://www.w3.org/2000/svg"><path d="M12.382 24.535c6.654 0 12.049-5.39 12.049-12.04C24.43 5.847 19.036.457 12.38.457 5.728.456.334 5.846.334 12.496c0 6.649 5.394 12.04 12.049 12.04z" fill="#2CA01C"/><path d="M21.087 12.495a4.684 4.684 0 01-4.686 4.682h-3.35V4.603c.962 0 1.74.778 1.74 1.739v9.096h1.61a2.946 2.946 0 002.945-2.943 2.946 2.946 0 00-2.945-2.943h-.67V7.813h.67a4.682 4.682 0 014.686 4.682zM3.68 12.495a4.684 4.684 0 014.686-4.682h3.35v12.574a1.74 1.74 0 01-1.74-1.739V9.552h-1.61a2.946 2.946 0 00-2.945 2.943 2.946 2.946 0 002.945 2.943h.67v1.739h-.67a4.682 4.682 0 01-4.686-4.682zM36.324 1.628c1.923 0 3.438 1.38 3.438 3.27l.005 4.336h-1.86V5.119c0-1.02-.683-1.701-1.58-1.701s-1.58.682-1.58 1.701v4.115h-1.86V4.897c0-1.891 1.515-3.27 3.437-3.27zM48.26 6.114c0 1.888 1.513 3.269 3.436 3.269 1.922 0 3.438-1.378 3.438-3.27V1.778H53.27v4.115c0 1.019-.682 1.701-1.58 1.701-.9 0-1.58-.682-1.58-1.701V1.777h-1.86l.01 4.337zM57.14 12H59v7.416h.046l2.828-3.135h2.39l-3.228 3.368 3.432 4.08H62l-2.951-3.818h-.045v3.818H57.14V12z" fill="#fff"/><path fill-rule="evenodd" clip-rule="evenodd" d="M34.008 27.456h1.861V16.281h-1.786v1.04h-.045c-.372-.59-1.213-1.257-2.579-1.257-2.126 0-3.617 1.707-3.617 3.912 0 2.172 1.398 3.973 3.665 3.973 1.04 0 1.987-.466 2.469-1.21h.032v4.717zm.064-7.448c0 1.164-.824 2.389-2.19 2.389-1.446 0-2.145-1.258-2.142-2.421 0-1.164.699-2.39 2.142-2.39 1.368 0 2.19 1.258 2.19 2.422z" fill="#fff"/><path d="M42.472 23.732h1.77v-7.448h-1.864v4.096c0 .992-.56 2.017-1.74 2.017-1.197 0-1.398-1.1-1.398-1.985v-4.128h-1.864v4.655c0 1.52.81 3.01 2.75 3.01 1.104 0 1.987-.67 2.314-1.413h.032v1.196zM46.11 16.12h1.864v7.45h-1.863v-7.45zM53.41 17.616c.605 0 1.242.31 1.537.73l1.274-1.115c-.591-.73-1.724-1.164-2.811-1.164-2.19 0-3.993 1.52-3.993 3.941 0 2.483 1.832 3.941 4.038 3.941 1.103 0 2.129-.374 2.75-1.04l-1.164-1.18c-.36.433-.994.666-1.57.666-1.413 0-2.112-1.226-2.112-2.39 0-1.163.685-2.389 2.05-2.389z" fill="#fff"/><path fill-rule="evenodd" clip-rule="evenodd" d="M67.183 17.23V12h-1.866v11.735h1.77v-1.119h.032c.51.854 1.52 1.335 2.562 1.335 2.268 0 3.666-1.8 3.666-3.973 0-2.204-1.49-3.911-3.618-3.911-1.368 0-2.112.682-2.5 1.163h-.046zm-.062 2.778c0-1.164.825-2.422 2.19-2.422 1.444 0 2.142 1.226 2.142 2.39 0 1.163-.698 2.42-2.142 2.42-1.368 0-2.19-1.224-2.19-2.388zM78.209 16.067c2.252 0 4.054 1.568 4.054 3.912s-1.802 3.973-4.054 3.973c-2.252 0-4.054-1.63-4.054-3.973 0-2.344 1.802-3.912 4.054-3.912zm0 6.33c1.475 0 2.158-1.257 2.158-2.42 0-1.165-.683-2.39-2.158-2.39-1.475 0-2.158 1.225-2.158 2.39 0 1.163.683 2.42 2.158 2.42zM91.18 19.979c0-2.344-1.803-3.912-4.055-3.912-2.251 0-4.053 1.568-4.053 3.912s1.802 3.973 4.053 3.973c2.252 0 4.054-1.63 4.054-3.973zm-1.896-.003c0 1.164-.683 2.421-2.159 2.421-1.475 0-2.16-1.257-2.158-2.42 0-1.165.683-2.39 2.158-2.39 1.476 0 2.159 1.225 2.159 2.39z" fill="#fff"/><path d="M92.314 12h1.86v7.416h.046l2.828-3.135h2.391l-3.229 3.368 3.433 4.08h-2.47l-2.95-3.818h-.046v3.818h-1.863V12zM103.097 17.46c.682 0 1.303.375 1.63.809l1.208-1.073c-.605-.76-1.725-1.132-2.796-1.132-1.475 0-2.966.712-2.966 2.373 0 1.397 1.103 1.846 2.206 2.111 1.132.262 1.708.45 1.708 1.07 0 .67-.653.886-1.197.886a2.434 2.434 0 01-1.909-.931l-1.226 1.148c.715.792 1.912 1.225 3.061 1.225 1.63 0 3.105-.666 3.105-2.483 0-1.458-1.303-1.953-2.407-2.218-1.038-.246-1.614-.401-1.614-.976 0-.592.608-.808 1.197-.808zM62.334 3.518H60.11V1.777h6.303v1.741h-2.22v5.715h-1.86V3.518zM58.907 1.777h-1.86v7.456h1.86V1.777zM42.965 3.518h-2.223V1.777h6.303v1.741h-2.22v5.715h-1.86V3.518zM30.977 1.777h-1.86v7.456h1.86V1.777z" fill="#fff"/></svg>