<svg width="106" height="35" viewBox="0 0 106 35" fill="none" xmlns="http://www.w3.org/2000/svg"><rect x=".426" y=".925" width="105.149" height="33.149" rx="2.979" stroke="#fff" stroke-width=".851"/><path d="M26.907 22.242V12.6h3.758c1.458 0 2.955.667 2.955 2.424 0 1.09-.68 1.81-1.675 2.11v.028c1.212.163 2.084.98 2.084 2.274 0 2.097-1.825 2.805-3.65 2.805h-3.472zm1.716-8.225v2.506h1.525c1.144 0 1.757-.477 1.757-1.308 0-.858-.613-1.198-1.907-1.198h-1.375zm0 3.976V20.8h1.538c.886 0 2.152-.177 2.152-1.444 0-1.008-.694-1.362-2.083-1.362h-1.607zm12.983-2.287v6.536h-1.552v-1.049h-.027c-.286.654-1.062 1.24-2.03 1.24-1.701 0-2.41-1.308-2.41-2.642v-4.085h1.635v3.622c0 .776.177 1.743 1.225 1.743 1.035 0 1.525-.899 1.525-1.77v-3.595h1.634zm3.787 6.536l-2.806-6.537h1.811l1.825 4.753h.028l1.62-4.752h1.702l-3.091 7.939c-.463 1.184-1.035 1.865-2.478 1.865a3.65 3.65 0 01-.845-.095l.136-1.416c.218.068.436.095.613.095.695 0 .885-.34 1.158-1.021l.327-.831zm8.56 0v-6.537h1.553v1.05h.027c.286-.655 1.063-1.24 2.03-1.24 1.702 0 2.41 1.307 2.41 2.642v4.085h-1.634V18.62c0-.777-.177-1.743-1.226-1.743-1.035 0-1.525.898-1.525 1.77v3.595h-1.634zm7.545-3.296c0-2.056 1.58-3.431 3.555-3.431 1.974 0 3.554 1.375 3.554 3.431 0 2.057-1.58 3.487-3.554 3.487-1.975 0-3.555-1.43-3.555-3.486zm1.662 0c0 1.022.599 2.125 1.893 2.125 1.293 0 1.892-1.103 1.892-2.125 0-1.02-.599-2.097-1.892-2.097-1.294 0-1.893 1.076-1.893 2.098zm8.38 3.296l-2.275-6.537h1.77l1.362 4.685h.027l1.403-4.684h1.743l1.416 4.684h.027l1.39-4.684h1.702l-2.26 6.536h-1.662l-1.485-4.576h-.027l-1.47 4.576h-1.662z" fill="#fff"/></svg>