<svg width="142" height="70" viewBox="0 0 142 70" fill="none" xmlns="http://www.w3.org/2000/svg"><path d="M22.199 12.068c0 5.229-4.242 7.476-8.337 7.476H8.318V4.675h5.376c4.22 0 8.505 1.764 8.505 7.393zm-3.738 0c0-3.34-2.373-4.327-4.851-4.327h-1.785v8.695h1.7c2.563 0 4.936-1.05 4.936-4.368zm16.178 2.205c0 3.422-2.646 5.607-5.817 5.607-3.15 0-5.796-2.184-5.796-5.607s2.646-5.524 5.796-5.524c3.171 0 5.817 2.1 5.817 5.524zm-3.318 0c0-1.345-.882-2.668-2.499-2.668s-2.457 1.323-2.457 2.668c0 1.344.861 2.709 2.478 2.709 1.617 0 2.478-1.365 2.478-2.71zm25.869 5.27h-3.444v-5.711c0-1.198-.273-2.206-1.491-2.206-1.176 0-1.743 1.093-1.743 2.269v5.649h-3.444v-5.965c0-1.197-.462-1.953-1.491-1.953-1.092 0-1.722.988-1.722 2.248v5.67H40.39V9.085h3.339v1.45h.042c.483-.883 1.554-1.744 3.129-1.744 1.512 0 2.562.651 3.15 1.785.693-1.092 1.785-1.785 3.339-1.785 2.835 0 3.8 2.31 3.8 4.284v6.469zm12.848-5.27c0 3.422-2.646 5.607-5.817 5.607-3.15 0-5.796-2.184-5.796-5.607s2.646-5.524 5.796-5.524c3.171 0 5.817 2.1 5.817 5.524zm-3.318 0c0-1.345-.882-2.668-2.499-2.668s-2.457 1.323-2.457 2.668c0 1.344.861 2.709 2.478 2.709 1.617 0 2.478-1.365 2.478-2.71zM78.31 8.875l-.147 3.024a3.36 3.36 0 00-.882-.104c-1.848 0-2.457 1.511-2.457 2.373v5.376h-3.444V9.085h3.318v1.512h.042c.525-1.05 1.554-1.806 2.835-1.806.273 0 .567.021.735.084zm2.959 4.242h4.43c0-1.092-.692-1.995-2.057-1.995-1.323 0-2.29.925-2.373 1.995zm7.602 1.323c0 .274 0 .568-.021.82h-7.581c.105 1.155 1.26 1.973 2.499 1.973 1.092 0 1.848-.462 2.31-1.091l2.394 1.512c-.987 1.427-2.625 2.226-4.746 2.226-3.15 0-5.754-1.995-5.754-5.523 0-3.423 2.478-5.608 5.649-5.608 3.087 0 5.25 2.121 5.25 5.691zm22.653-5.355l-3.633 10.459h-3.465l-2.058-6.51h-.042l-2.016 6.51h-3.465L93.232 9.085h3.717l1.806 6.615h.063l1.869-6.615h3.465l1.932 6.615h.042l1.827-6.615h3.57zm4.244-3.339c0 1.071-.882 1.89-1.974 1.89-1.113 0-1.974-.86-1.974-1.89 0-1.008.861-1.89 1.974-1.89 1.092 0 1.974.84 1.974 1.89zm-.252 13.798h-3.444V9.085h3.444v10.459zm8.082-7.876h-2.457v3.99c0 .967.315 1.47 1.302 1.47.336 0 .756-.063 1.008-.168l.042 2.52c-.462.168-1.26.316-1.995.316-2.793 0-3.717-1.491-3.717-3.718v-4.41h-1.68V9.085h1.659v-2.75h3.381v2.75h2.457v2.583zm11.132 7.876h-3.465v-5.67c0-1.177-.294-2.206-1.533-2.206-1.197 0-1.869.988-1.869 2.227v5.649h-3.444V3.667h3.444v6.742h.042c.462-.84 1.554-1.618 3.003-1.618 2.835 0 3.822 2.184 3.822 4.284v6.469zm-103.287 23H22.39c-4.725 0-7.938-2.752-7.938-7.623 0-4.515 3.465-7.645 8.064-7.645 4.62 0 8 3.108 8 7.582 0 2.268-1.133 4.01-2.204 4.83v.063l3.129-.063v2.855zm-4.725-7.581c0-2.584-1.722-4.431-4.2-4.431-2.394 0-4.2 1.848-4.2 4.43 0 2.667 1.722 4.515 4.179 4.515 2.436 0 4.22-1.847 4.22-4.514zm15.695 7.58h-3.318v-1.449h-.042c-.483.925-1.68 1.743-3.15 1.743-2.814 0-3.8-2.184-3.8-4.284v-6.467h3.464v5.67c0 1.175.294 2.225 1.554 2.225 1.197 0 1.848-1.05 1.848-2.247v-5.648h3.444v10.458zm5.592-13.796c0 1.07-.882 1.89-1.974 1.89-1.113 0-1.974-.861-1.974-1.89 0-1.009.86-1.89 1.974-1.89 1.092 0 1.974.84 1.974 1.89zm-.252 13.797h-3.444V32.086h3.444v10.458zm11.086-9.387l-1.995 2.31c-.378-.505-1.134-.84-1.827-.84-1.45 0-2.415 1.238-2.415 2.688 0 1.449.945 2.666 2.457 2.666.693 0 1.449-.273 1.869-.776l1.91 2.33c-.86.84-2.33 1.345-3.863 1.345-3.297 0-5.86-2.1-5.86-5.566 0-3.401 2.584-5.564 5.839-5.564 1.49 0 3.066.566 3.885 1.407zm7.558 3.654l4.2 5.733h-4.263l-3.423-5.02h-.063v5.02h-3.465V26.668h3.465v9.66h.063l3.34-4.242h4.178l-4.032 4.724zm16.395 1.407c0 3.233-2.834 4.325-5.67 4.325H71.2V27.677h5.921c2.31 0 5.062.819 5.062 3.822 0 1.637-.988 2.73-2.437 3.213v.041c1.702.294 3.046 1.512 3.046 3.465zm-4.073-6.238c0-1.008-.778-1.448-2.29-1.448h-1.763v3.065h1.931c1.344 0 2.121-.566 2.121-1.617zm.483 5.902c0-1.24-1.008-1.639-2.541-1.639h-1.995v3.402h2.015c1.134 0 2.52-.315 2.52-1.764zm16.023-.61c0 3.424-2.646 5.608-5.817 5.608-3.15 0-5.796-2.184-5.796-5.608 0-3.422 2.646-5.522 5.796-5.522 3.171 0 5.817 2.1 5.817 5.523zm-3.318 0c0-1.343-.882-2.666-2.499-2.666s-2.457 1.322-2.457 2.666c0 1.345.861 2.71 2.478 2.71 1.617 0 2.478-1.365 2.478-2.71zm15.747 0c0 3.424-2.646 5.608-5.817 5.608-3.15 0-5.796-2.184-5.796-5.608 0-3.422 2.646-5.522 5.796-5.522 3.171 0 5.817 2.1 5.817 5.523zm-3.318 0c0-1.343-.882-2.666-2.499-2.666s-2.457 1.322-2.457 2.666c0 1.345.861 2.71 2.478 2.71 1.617 0 2.478-1.365 2.478-2.71zm11.693-.462l4.2 5.733h-4.263l-3.423-5.018h-.063v5.019h-3.465V26.668h3.465v9.66h.063l3.339-4.242h4.179l-4.032 4.724zm12.535-3.59l-1.89 1.953c-.546-.526-1.344-.946-2.184-.946-.651 0-1.302.232-1.302.84 0 .589.567.757 1.911 1.05 1.596.358 3.339 1.156 3.339 3.193 0 2.645-2.331 3.57-4.473 3.57-1.701 0-3.465-.568-4.557-1.617l1.932-2.038c.609.672 1.554 1.176 2.562 1.176.567 0 1.239-.23 1.239-.903 0-.65-.651-.86-2.079-1.197-1.449-.336-3.045-1.07-3.045-3.044 0-2.5 2.352-3.507 4.347-3.507 1.554 0 3.171.504 4.2 1.47zM55.739 58.046c0 4.704-3.444 7.895-8.106 7.895-4.641 0-8.085-3.191-8.085-7.895 0-4.767 3.444-7.77 8.085-7.77 4.662 0 8.106 3.002 8.106 7.77zm-3.843 0c0-2.604-1.743-4.536-4.263-4.536-2.52 0-4.242 1.931-4.242 4.535 0 2.688 1.743 4.62 4.242 4.62 2.499 0 4.263-1.931 4.263-4.62zm15.51 7.496h-3.465v-5.712c0-1.155-.315-2.205-1.554-2.205-1.218 0-1.848 1.05-1.848 2.248v5.67h-3.465V55.085h3.34v1.449h.041c.483-.924 1.68-1.743 3.13-1.743 2.813 0 3.821 2.183 3.821 4.283v6.468zm5.297 0h-3.486V49.667h3.486v15.876zm5.624-13.797c0 1.072-.882 1.89-1.974 1.89-1.112 0-1.974-.86-1.974-1.89 0-1.008.861-1.89 1.974-1.89 1.093 0 1.975.84 1.975 1.89zm-.251 13.797h-3.444V55.085h3.444v10.458zm12.22 0H86.83v-5.712c0-1.155-.315-2.205-1.554-2.205-1.218 0-1.848 1.05-1.848 2.248v5.67h-3.465V55.085h3.34v1.449h.041c.483-.924 1.68-1.743 3.13-1.743 2.813 0 3.821 2.183 3.821 4.283v6.468zm4.54-6.426h4.43c0-1.091-.692-1.994-2.057-1.994-1.323 0-2.29.924-2.373 1.995zm7.602 1.324c0 .273 0 .566-.021.819h-7.581c.105 1.154 1.26 1.974 2.499 1.974 1.092 0 1.848-.462 2.31-1.093l2.394 1.513c-.987 1.428-2.625 2.225-4.746 2.225-3.15 0-5.754-1.995-5.754-5.523 0-3.422 2.478-5.607 5.649-5.607 3.087 0 5.25 2.121 5.25 5.691z" fill="#14324F"/></svg>