<svg width="139" height="69" viewBox="0 0 139 69" fill="none" xmlns="http://www.w3.org/2000/svg"><path d="M11.598 17.387V1.103H22.8v4.554H16.75V7.06h5.681v4.255h-5.68v1.518h6.44v4.554H11.598zm22.553-3.841c0 3.243-3.105 4.301-5.36 4.301-2.07 0-4.231-.621-5.68-1.725l2.599-3.013c.736.667 1.817 1.127 2.737 1.127.368 0 .759-.115.759-.483 0-.391-.506-.575-1.91-.897-1.517-.345-3.403-1.357-3.403-3.68 0-3.151 3.105-4.347 5.313-4.347 1.863 0 3.795.575 5.267 1.564L31.989 9.36c-.76-.483-1.587-.782-2.346-.782-.506 0-.897.115-.897.506 0 .299.23.414 1.61.69 1.909.391 3.795 1.449 3.795 3.772zm7.537 4.301c-4.094 0-7.061-2.553-7.061-6.509 0-3.933 3.082-6.509 7.13-6.509 1.656 0 3.473.598 4.393 1.311l-2.645 3.818c-.368-.437-1.035-.667-1.587-.667-1.012 0-2.07.69-2.07 2.047 0 1.357 1.058 2.001 2.07 2.001.62 0 1.242-.253 1.61-.644l2.668 3.726c-1.012.805-2.737 1.426-4.508 1.426zm11.37-5.474h-.299c-1.564 0-2.599.276-2.599 1.196 0 .667.713.943 1.22.943 1.011 0 1.678-.713 1.678-1.725v-.414zm-.345-2.622v-.046c0-.736-.552-1.081-1.38-1.081-.966 0-1.886.483-2.553 1.035l-2.645-2.622c1.45-1.403 3.611-2.208 5.75-2.208 4.6 0 5.82 2.783 5.82 6.187v6.371h-4.808v-.966h-.046c-.598.92-1.909 1.288-2.967 1.288-1.886 0-4.209-1.012-4.209-3.887 0-3.381 3.841-4.071 7.038-4.071zm14.762 7.958c-1.196 0-2.46-.46-3.197-1.265h-.046v6.463h-5.267V5.289h4.991v1.219h.046c.897-1.012 2.254-1.541 3.45-1.541 3.611 0 5.52 3.22 5.52 6.325 0 3.197-1.886 6.417-5.497 6.417zm.575-6.417c0-1.058-.713-2.001-1.978-2.001-1.242 0-2.07.943-2.07 2.001 0 1.127.828 2.047 2.07 2.047 1.265 0 1.978-.897 1.978-2.047zm10.358-1.564h3.657c0-.851-.69-1.472-1.748-1.472-1.173 0-1.817.805-1.91 1.472zm8.234 1.725c0 .391-.023.851-.046 1.127h-8.142c.092.851 1.104 1.38 2.07 1.38.966 0 1.656-.437 1.978-.851l3.772 1.909c-1.058 1.725-3.197 2.829-5.888 2.829-3.52 0-6.854-2.231-6.854-6.509 0-4.002 3.013-6.509 6.739-6.509 3.795 0 6.37 2.806 6.37 6.624zm11.037 6.256c-3.22 0-4.784-1.38-4.784-4.301V9.084h-1.702V5.289h1.68V2.575h5.151v2.714h2.622v3.795h-2.622v3.22c0 1.173.53 1.495 1.426 1.495.345 0 .759-.069.966-.138v3.634c-.552.23-1.633.414-2.737.414zm12.165-12.742c3.404 0 4.324 2.668 4.324 5.06v7.36h-5.336v-6.44c0-1.219-.391-1.656-1.15-1.656-.621 0-1.196.506-1.196 1.679v6.417h-5.313V-.001h5.313v6.624h.046c.598-.897 1.794-1.656 3.312-1.656zm10.12 4.761h3.657c0-.851-.69-1.472-1.748-1.472-1.173 0-1.817.805-1.909 1.472zm8.234 1.725c0 .391-.023.851-.046 1.127h-8.142c.092.851 1.104 1.38 2.07 1.38.966 0 1.656-.437 1.978-.851l3.772 1.909c-1.058 1.725-3.197 2.829-5.888 2.829-3.519 0-6.854-2.231-6.854-6.509 0-4.002 3.013-6.509 6.739-6.509 3.795 0 6.371 2.806 6.371 6.624zM11.554 36.546c0 3.243-3.105 4.301-5.36 4.301-2.07 0-4.231-.621-5.68-1.725l2.599-3.013c.736.667 1.817 1.127 2.737 1.127.368 0 .759-.115.759-.483 0-.391-.506-.575-1.91-.897-1.517-.345-3.403-1.357-3.403-3.68 0-3.151 3.105-4.347 5.313-4.347 1.863 0 3.795.575 5.267 1.564L9.392 32.36c-.76-.483-1.587-.782-2.346-.782-.506 0-.897.115-.897.506 0 .299.23.414 1.61.69 1.909.391 3.795 1.449 3.795 3.772zm9.469 4.163c-1.196 0-2.461-.46-3.197-1.265h-.046v6.463h-5.267V28.289h4.99v1.219h.047c.897-1.012 2.254-1.541 3.45-1.541 3.61 0 5.52 3.22 5.52 6.325 0 3.197-1.886 6.417-5.497 6.417zm.575-6.417c0-1.058-.713-2.001-1.978-2.001-1.242 0-2.07.943-2.07 2.001 0 1.127.828 2.047 2.07 2.047 1.265 0 1.978-.897 1.978-2.047zm5.965 6.095V28.289h5.106v1.38h.046c.528-.966 1.586-1.702 2.966-1.702.392 0 .783.046 1.013.115l-.415 4.508a4.583 4.583 0 00-1.127-.138c-1.38 0-2.276.92-2.276 2.07v5.865h-5.313zm13.31-7.659h3.657c0-.851-.69-1.472-1.748-1.472-1.173 0-1.817.805-1.909 1.472zm8.234 1.725c0 .391-.023.851-.046 1.127H40.92c.092.851 1.104 1.38 2.07 1.38.966 0 1.656-.437 1.978-.851l3.772 1.909c-1.058 1.725-3.197 2.829-5.888 2.829-3.519 0-6.854-2.231-6.854-6.509 0-4.002 3.013-6.509 6.74-6.509 3.794 0 6.37 2.806 6.37 6.624zm7.568.92h-.299c-1.564 0-2.599.276-2.599 1.196 0 .667.713.943 1.219.943 1.012 0 1.679-.713 1.679-1.725v-.414zm-.345-2.622v-.046c0-.736-.552-1.081-1.38-1.081-.966 0-1.886.483-2.553 1.035l-2.645-2.622c1.449-1.403 3.611-2.208 5.75-2.208 4.6 0 5.819 2.783 5.819 6.187v6.371h-4.807v-.966h-.046c-.598.92-1.909 1.288-2.967 1.288-1.886 0-4.209-1.012-4.209-3.887 0-3.381 3.841-4.071 7.038-4.071zm5.769 1.541c0-3.105 1.909-6.325 5.52-6.325 1.15 0 2.438.46 3.15 1.288h.047v-6.256h5.29v17.388h-4.761v-1.265h-.046c-.69.966-2.185 1.587-3.68 1.587-3.611 0-5.52-3.22-5.52-6.417zm4.922 0c0 1.15.713 2.047 1.978 2.047 1.242 0 2.07-.92 2.07-2.047 0-1.058-.828-2.001-2.07-2.001-1.265 0-1.978.943-1.978 2.001zm20.524 2.254c0 3.243-3.105 4.301-5.36 4.301-2.07 0-4.231-.621-5.68-1.725l2.599-3.013c.736.667 1.817 1.127 2.737 1.127.368 0 .759-.115.759-.483 0-.391-.506-.575-1.91-.897-1.517-.345-3.403-1.357-3.403-3.68 0-3.151 3.105-4.347 5.313-4.347 1.863 0 3.795.575 5.267 1.564l-2.484 2.967c-.76-.483-1.587-.782-2.346-.782-.506 0-.897.115-.897.506 0 .299.23.414 1.61.69 1.909.391 3.795 1.449 3.795 3.772zm9.63-8.579c3.404 0 4.324 2.668 4.324 5.06v7.36h-5.337v-6.44c0-1.219-.39-1.656-1.15-1.656-.62 0-1.195.506-1.195 1.679v6.417h-5.313V22.999h5.313v6.624h.046c.597-.897 1.793-1.656 3.311-1.656zm10.12 4.761h3.657c0-.851-.69-1.472-1.748-1.472-1.173 0-1.817.805-1.909 1.472zm8.234 1.725c0 .391-.023.851-.046 1.127h-8.142c.092.851 1.104 1.38 2.07 1.38.966 0 1.656-.437 1.978-.851l3.772 1.909c-1.058 1.725-3.197 2.829-5.888 2.829-3.519 0-6.854-2.231-6.854-6.509 0-4.002 3.013-6.509 6.739-6.509 3.795 0 6.371 2.806 6.371 6.624zm5.333-1.725h3.657c0-.851-.69-1.472-1.748-1.472-1.173 0-1.817.805-1.909 1.472zm8.234 1.725c0 .391-.023.851-.046 1.127h-8.142c.092.851 1.104 1.38 2.07 1.38.966 0 1.656-.437 1.978-.851l3.772 1.909c-1.058 1.725-3.197 2.829-5.888 2.829-3.519 0-6.854-2.231-6.854-6.509 0-4.002 3.013-6.509 6.739-6.509 3.795 0 6.371 2.806 6.371 6.624zm6.208 6.256c-3.22 0-4.784-1.38-4.784-4.301v-4.324h-1.702v-3.795h1.679v-2.714h5.152v2.714h2.622v3.795h-2.622v3.22c0 1.173.529 1.495 1.426 1.495.345 0 .759-.069.966-.138v3.634c-.552.23-1.633.414-2.737.414zM49.01 59.546c0 3.243-3.105 4.301-5.359 4.301-2.07 0-4.232-.621-5.68-1.725l2.598-3.013c.736.667 1.817 1.127 2.737 1.127.368 0 .76-.115.76-.483 0-.391-.507-.575-1.91-.897-1.518-.345-3.404-1.357-3.404-3.68 0-3.151 3.105-4.347 5.313-4.347 1.863 0 3.795.575 5.267 1.564l-2.484 2.967c-.759-.483-1.587-.782-2.346-.782-.506 0-.897.115-.897.506 0 .299.23.414 1.61.69 1.91.391 3.795 1.449 3.795 3.772zm9.47 4.163c-1.197 0-2.462-.46-3.198-1.265h-.046v6.463H49.97V51.289h4.991v1.219h.046c.897-1.012 2.254-1.541 3.45-1.541 3.611 0 5.52 3.22 5.52 6.325 0 3.197-1.886 6.417-5.497 6.417zm.574-6.417c0-1.058-.713-2.001-1.978-2.001-1.242 0-2.07.943-2.07 2.001 0 1.127.828 2.047 2.07 2.047 1.265 0 1.978-.897 1.978-2.047zm5.988 6.095V51.289h5.313v12.098h-5.313zm-.092-15.594c0-1.472 1.265-2.714 2.783-2.714 1.449 0 2.714 1.242 2.714 2.714 0 1.518-1.265 2.691-2.714 2.691-1.518 0-2.783-1.173-2.783-2.691zm6.943 15.594V51.289h5.106v1.38h.046c.529-.966 1.587-1.702 2.967-1.702.39 0 .782.046 1.012.115l-.414 4.508a4.583 4.583 0 00-1.127-.138c-1.38 0-2.277.92-2.277 2.07v5.865h-5.313zm15.68-5.014h-.3c-1.563 0-2.598.276-2.598 1.196 0 .667.713.943 1.219.943 1.012 0 1.679-.713 1.679-1.725v-.414zm-.345-2.622v-.046c0-.736-.552-1.081-1.38-1.081-.966 0-1.886.483-2.553 1.035l-2.645-2.622c1.449-1.403 3.61-2.208 5.75-2.208 4.6 0 5.819 2.783 5.819 6.187v6.371h-4.807v-.966h-.046c-.598.92-1.91 1.288-2.967 1.288-1.886 0-4.21-1.012-4.21-3.887 0-3.381 3.842-4.071 7.039-4.071zm6.252 7.636V45.999h5.427v17.388H93.48z" fill="#2CA01C"/></svg>