<svg width="105" height="124" viewBox="0 0 105 124" fill="none" xmlns="http://www.w3.org/2000/svg"><path d="M33.083 15.045c7.403.425 15.316 3.403 21.102 8.508L41.592 36.063c-2.723-3.319-7.232-5.02-10.38-5.02-2.979 0-4.936.765-4.936 2.637 0 1.787 1.787 2.297 5.956 3.659 8.68 2.723 20.337 6.467 20.337 18.55 0 12.678-9.786 19.655-20.422 20.506v6.467h-8.679v-6.382c-7.913-.596-15.826-3.914-21.102-8.424l12.338-13.104c2.808 2.979 7.998 5.701 12.933 5.701 2.298 0 4.51-.68 4.51-2.722 0-2.213-2.127-2.978-10.636-5.701C13.343 49.506 5.94 45.336 5.94 35.04c0-11.998 8.849-18.295 18.464-19.826V8.918h8.68v6.127zM75.39 75.798v-38.8l-10.125 6.977-9.53-14.806L77.09 15.555h18.72v60.243H75.389zM6.307 107.793l-3.32-1.015 6.408-16.45 3.34 1.014-6.428 16.451zm13.386-9.706h-.105l.232 8.458h-4.694v-14.97h6.576l2.707 8.056h.105l2.347-8.056h6.788v14.97h-4.885l.148-8.415-.127-.021-2.79 8.436h-3.553l-2.749-8.457zm16.278.888c0-4.8 3.573-7.823 8.31-7.823 4.736 0 8.33 3.024 8.33 7.823 0 4.8-3.594 7.993-8.33 7.993-4.737 0-8.31-3.193-8.31-7.993zm5.35 0c0 1.946 1.247 3.341 2.96 3.341 1.69 0 2.96-1.395 2.96-3.34 0-1.946-1.27-3.214-2.96-3.214-1.713 0-2.96 1.268-2.96 3.213zm13.626 7.57v-14.97h5.011l4.271 7.59h.085l-.212-7.59h4.779v14.97h-5.138l-4.144-7.147h-.085l.211 7.147h-4.778zm24.4-10.72v10.72h-5.032v-10.72h-3.679v-4.25h12.39v4.25h-3.678zm14.56 10.72v-5.688h-4.101v5.688h-5.032v-14.97h5.01v5.075h4.103v-5.075h5.053v14.97h-5.032zM10.072 115.118h-3.7v1.819h3.414v1.758H6.37v3.427H4.265v-8.823h5.807v1.819zm10.57 2.555c0 2.791-2.044 4.685-4.81 4.685-2.754 0-4.798-1.894-4.798-4.685 0-2.829 2.044-4.611 4.798-4.611 2.766 0 4.81 1.782 4.81 4.611zm-2.28 0c0-1.546-1.035-2.692-2.53-2.692-1.496 0-2.517 1.146-2.517 2.692 0 1.595 1.034 2.741 2.517 2.741 1.483 0 2.53-1.146 2.53-2.741zm10.899 4.449h-2.493l-1.906-3.502h-.723v3.502h-2.094v-8.823h3.365c1.695 0 3.377.648 3.377 2.666 0 1.184-.698 2.032-1.832 2.381l2.306 3.776zm-2.58-6.119c0-.823-.785-.985-1.42-.985h-1.135v2.057h1.01c.685 0 1.545-.175 1.545-1.072zm13.098 3.551c0 1.932-1.707 2.804-3.327 2.804-1.607 0-3.066-.698-3.539-2.342l1.944-.511c.162.585.698 1.096 1.495 1.096.599 0 1.284-.299 1.284-1.121 0-.898-.922-1.159-1.794-1.159h-.561v-1.533h.61c.785 0 1.546-.199 1.546-1.047 0-.635-.536-.972-1.11-.972-.598 0-1.071.386-1.208.985l-1.944-.449c.423-1.483 1.82-2.243 3.29-2.243 1.557 0 3.103.797 3.103 2.492 0 .972-.623 1.695-1.483 1.919v.038c.997.236 1.694 1.059 1.694 2.043zm14.898 2.568h-2.08l.05-6.244h-.038l-2.293 6.244H48.82l-2.23-6.244h-.038l.05 6.244h-2.006v-8.823h3.028l2.006 5.657h.05l1.92-5.657h3.077v8.823zm11.018-4.449c0 2.791-2.044 4.685-4.81 4.685-2.755 0-4.798-1.894-4.798-4.685 0-2.829 2.043-4.611 4.797-4.611 2.767 0 4.81 1.782 4.81 4.611zm-2.28 0c0-1.546-1.035-2.692-2.53-2.692-1.496 0-2.518 1.146-2.518 2.692 0 1.595 1.034 2.741 2.517 2.741 1.483 0 2.53-1.146 2.53-2.741zm11.708 4.449h-2.418l-3.551-5.77h-.037l.05 5.77h-2.07v-8.823h2.43l3.54 5.757h.037l-.05-5.757h2.07v8.823zm8.088-7.004H80.72v7.004h-2.131v-7.004h-2.492v-1.819h7.115v1.819zm8.674 7.004h-2.13v-3.689h-3.44v3.689h-2.131v-8.823h2.131v3.339h3.44v-3.339h2.13v8.823zm7.835-7.964l-1.358 1.434c-.362-.462-1.022-.761-1.57-.761-.549 0-1.234.187-1.234.885 0 .586.523.773 1.358 1.035 1.196.386 2.742.897 2.742 2.654 0 2.031-1.633 2.941-3.378 2.941-1.258 0-2.53-.461-3.302-1.271l1.396-1.421c.423.536 1.209.935 1.906.935.648 0 1.222-.249 1.222-.96 0-.673-.673-.885-1.832-1.258-1.122-.362-2.256-.935-2.256-2.53 0-1.957 1.77-2.767 3.415-2.767.997 0 2.118.374 2.89 1.084z" fill="#14324F"/></svg>